<svg width="24" height="24" viewBox="0 0 24 24" fill="none" xmlns="http://www.w3.org/2000/svg">
<path d="M11.929 13.314L16.879 8.36396C17.0676 8.18181 17.3202 8.08101 17.5824 8.08329C17.8446 8.08557 18.0954 8.19074 18.2808 8.37615C18.4662 8.56155 18.5714 8.81237 18.5737 9.07456C18.5759 9.33676 18.4751 9.58936 18.293 9.77796L12.636 15.435C12.4485 15.6224 12.1942 15.7278 11.929 15.7278C11.6638 15.7277 11.4095 15.6224 11.222 15.435L5.56499 9.77796C5.38283 9.58936 5.28204 9.33676 5.28431 9.07456C5.28659 8.81237 5.39176 8.56155 5.57717 8.37614C5.76258 8.19074 6.01339 8.08557 6.27559 8.08329C6.53778 8.08101 6.79039 8.18181 6.97899 8.36396L11.929 13.314Z" fill="black"/>
</svg>
