<svg width="24" height="24" viewBox="0 0 24 24" fill="none" xmlns="http://www.w3.org/2000/svg">
<path d="M12.071 10.686L7.12101 15.636C6.93241 15.8182 6.67981 15.919 6.41761 15.9167C6.15541 15.9144 5.9046 15.8093 5.71919 15.6239C5.53379 15.4384 5.42862 15.1876 5.42634 14.9254C5.42406 14.6632 5.52485 14.4106 5.70701 14.222L11.364 8.56504C11.5515 8.37757 11.8058 8.27225 12.071 8.27225C12.3362 8.27225 12.5905 8.37757 12.778 8.56504L18.435 14.222C18.6172 14.4106 18.718 14.6632 18.7157 14.9254C18.7134 15.1876 18.6082 15.4384 18.4228 15.6239C18.2374 15.8093 17.9866 15.9144 17.7244 15.9167C17.4622 15.919 17.2096 15.8182 17.021 15.636L12.071 10.686Z" fill="black"/>
</svg>
