<svg width="181" height="60" viewBox="0 0 181 60" fill="none" xmlns="http://www.w3.org/2000/svg">
<path d="M169.822 35.6702C169.789 35.6702 169.757 35.6702 169.692 35.6702C169.659 35.6702 169.627 35.6702 169.594 35.6702C167.352 35.6702 165.5 37.5163 165.5 39.824C165.5 42.1317 167.319 43.9779 169.594 43.9779C170.017 43.9779 170.406 43.9119 170.796 43.813C170.796 43.846 170.796 43.879 170.796 43.9119C170.796 46.3515 169.302 48.0987 165.532 49.0548L165.63 49.3845C170.276 48.9888 174.468 46.0548 174.468 41.4394C174.468 37.2526 171.999 35.6702 169.822 35.6702Z" fill="white"/>
<path d="M104.765 17.934C106.883 17.934 108.6 16.1924 108.6 14.0439C108.6 11.8955 106.883 10.1538 104.765 10.1538C102.648 10.1538 100.931 11.8955 100.931 14.0439C100.931 16.1924 102.648 17.934 104.765 17.934Z" fill="white"/>
<path d="M95.1794 41.4725V13.6813C95.1794 13.2527 95.2118 11.1428 95.3093 9.2637L95.2118 9.16479L84.9758 12.4945V12.6263L86.3406 14.3406C86.7305 14.8681 86.828 15.3296 86.828 16.1538V41.4066C86.828 42.1978 86.698 42.3296 85.5282 42.5934L84.7483 42.7252V43.1538H97.2591V42.7252L96.4792 42.5934C95.3093 42.3626 95.1794 42.2307 95.1794 41.4725Z" fill="white"/>
<path d="M108.957 41.4395V23.8351C108.957 23.3406 108.99 21.2307 109.087 19.4175L108.99 19.3186L98.7538 22.6483V22.7472L100.119 24.4285C100.509 24.956 100.606 25.4175 100.606 26.2417V41.4395C100.606 42.2307 100.476 42.3626 99.3063 42.6263L98.5264 42.7582V43.1867H111.037V42.7582L110.257 42.6263C109.055 42.3626 108.957 42.2307 108.957 41.4395Z" fill="white"/>
<path d="M136.059 41.4725V26.2087C136.059 23.2087 135.441 22.0878 134.564 21.1977C133.654 20.2746 132.354 19.6812 130.762 19.6812C128.195 19.6812 125.628 20.9999 122.638 24.4944L122.443 24.3955L122.475 23.3735C122.475 22.9779 122.573 21.2307 122.703 19.4175L122.605 19.3186L112.272 22.7142V22.8461L113.637 24.5274C114.027 25.0549 114.124 25.5164 114.124 26.3406V41.4725C114.124 42.2637 113.994 42.3955 112.824 42.6593L112.044 42.7911V43.2197H124.165V42.7911L123.385 42.6593C122.573 42.5274 122.475 42.2637 122.475 41.5384V25.1538C123.353 24.8571 124.165 24.6263 124.945 24.6263C125.855 24.6263 126.505 24.8571 126.96 25.3186C127.577 26.0109 127.74 27.2307 127.74 28.945V41.5054C127.74 42.2307 127.61 42.4944 126.765 42.6263L125.985 42.7582V43.1867H138.106V42.7582L137.326 42.6263C136.189 42.3626 136.059 42.2637 136.059 41.4725Z" fill="white"/>
<path d="M21.707 10.4504H6.82404V10.879L8.28633 11.1098C10.0411 11.4065 10.3011 11.6373 10.561 12.6263C10.756 13.4175 10.886 15.6263 10.886 17.9669V35.6043C10.886 37.9449 10.756 40.1537 10.561 40.9449C10.3336 41.934 10.0411 42.1647 8.28633 42.4614L6.82404 42.6922V43.1208C14.9804 43.1208 16.0853 43.1208 21.0246 43.1208C36.0375 43.1208 41.3993 33.89 41.3993 26.5054C41.3993 15.857 34.0553 10.4504 21.707 10.4504ZM28.0761 40.0548C26.2888 41.868 24.5341 42.4944 21.837 42.4944H21.7395C20.4722 42.4944 20.2447 42.1647 20.0822 41.5713C19.8872 40.7801 19.8547 39.1318 19.8547 36.4285V15.2636C19.8547 13.0548 19.8547 11.934 19.9522 11.3076C21.837 11.3405 23.4292 11.5054 25.379 12.4944C29.4409 14.5384 31.9431 19.7142 31.9431 27.4944C31.9431 32.5713 30.8382 37.2856 28.0761 40.0548Z" fill="white"/>
<path d="M65.0885 40.1208C64.4061 40.5494 63.9187 40.6483 63.5287 40.6483C63.0413 40.6483 62.6188 40.5164 62.2614 40.1538C61.774 39.6592 61.5465 39.1318 61.5465 37.6153V26.4395C61.5465 24.0988 61.2215 22.3845 59.9542 21.0988C58.8494 19.9779 56.9971 19.3845 54.6249 19.3845C52.2853 19.3845 49.7506 20.4395 47.6059 21.7581C45.0063 23.1098 43.544 25.0878 43.7389 26.7691C43.9339 28.3516 45.1038 28.9779 46.4686 28.8131C48.0283 28.6153 49.2632 27.7581 50.173 26.7032C49.2307 25.3186 48.6458 24.0329 48.5158 23.2417C48.9707 23.0768 49.5231 22.945 50.173 22.945C50.9854 22.945 51.8303 23.1428 52.3503 23.7362C53.0327 24.3625 53.3576 25.945 53.3576 29.0439V31.4834L49.3932 32.8021C45.3312 34.1867 43.9014 34.8461 42.8291 35.934C42.1467 36.6263 41.7567 37.6483 41.7567 38.7362C41.7567 41.3406 43.6415 43.7801 46.7935 43.7801C49.0032 43.7801 50.498 42.857 52.6427 41.0439L53.3251 40.4505L53.4551 40.4834C54.2675 42.6922 56.1522 43.9779 58.6869 43.9779C61.8714 43.9779 64.2761 41.6373 65.251 40.3516L65.0885 40.1208ZM53.3901 39.857C53.0002 40.0878 52.6102 40.2527 52.0253 40.2527C50.7255 40.2527 49.1007 39.5603 49.1007 37.1867C49.1007 35.901 50.0106 34.4505 50.6605 33.7911C51.3429 33.0988 51.9603 32.7691 53.3576 31.9779V39.857H53.3901Z" fill="white"/>
<path d="M81.8562 19.5164C79.5165 19.5164 77.0469 22.2856 75.942 26.6043L75.7471 26.5054L75.942 23.3735C75.9745 22.5493 76.0395 21.4614 76.1695 19.5493L76.072 19.4504L65.7385 22.846V22.9779L67.1033 24.6592C67.5257 25.1537 67.5907 25.6482 67.5907 26.4724V41.3405C67.5907 42.1318 67.4607 42.2636 66.2909 42.5274L65.511 42.6592V43.0878H74.8047H76.1045H78.0218V42.6592L77.2419 42.5274C76.202 42.2966 75.9745 42.1647 75.942 41.5384C75.942 41.5054 75.942 41.4394 75.942 41.3735V28.0219V27.7911C76.2995 26.7362 76.8844 25.9779 78.0543 25.9779C78.9316 25.9779 80.7514 26.4724 82.7336 27.5603C83.871 26.2746 84.7158 24.5933 84.7158 22.6153C84.7158 20.868 83.7735 19.5164 81.8562 19.5164Z" fill="white"/>
<path d="M163.062 43.3846C163.062 42.2637 162.673 40.7472 161.6 39.6593C160.04 38.0769 157.116 37.8132 153.346 37.8132C150.552 37.8132 148.31 37.8461 146.587 37.8461C144.93 37.8461 144.28 37.5165 144.085 37.0219C144.02 36.8571 143.988 36.6923 143.988 36.4945C143.988 35.8681 144.313 34.978 144.995 34.3516C146.392 34.945 148.017 35.2747 149.869 35.2747C154.679 35.2747 158.156 33.1318 159.261 29.7692C159.52 28.978 159.683 28.1208 159.683 27.1978C159.683 25.2197 158.936 23.5384 156.856 21.5274L157.051 21.6263C158.643 22.1538 159.943 22.4505 161.178 22.0879C162.51 21.6923 163.095 20.6044 162.673 19.1868C162.413 18.3626 161.925 17.6373 161.21 17.1428C159.325 18.5274 157.896 19.4175 156.433 19.9121C154.516 19.7472 152.404 19.1868 149.999 19.1868C143.923 19.1868 140.056 22.5824 140.056 27.2307C140.056 28.3186 140.283 29.3736 140.706 30.2967C141.42 31.8791 142.688 33.1978 144.41 34.0549C141.875 35.4725 139.666 37.0879 139.666 39.4615C139.666 41.0439 140.186 42.1978 141.225 43.2857C141.225 43.2857 141.225 43.2857 141.258 43.3186C142.005 44.0439 142.98 44.5384 144.02 44.7692C140.218 45.7912 138.788 47.4725 138.788 49.3186C138.788 52.1208 141.745 54.0659 147.692 54.0659C149.934 54.0659 152.079 53.7033 154.029 53.011C156.531 52.1208 158.708 50.7362 160.463 48.956C161.958 47.4395 163.062 45.923 163.062 43.3846ZM151.852 50.967C148.959 50.967 146.62 50.3736 145.287 49.2197C144.475 48.5274 144.053 47.6373 144.053 46.5494C144.053 45.8571 144.183 45.3296 144.475 44.9011C144.768 44.934 145.06 44.934 145.352 44.934C147.335 44.934 149.414 44.9011 151.527 44.9011C155.946 44.9011 157.831 45.1318 158.708 46.0219C159.033 46.3516 159.293 46.9121 159.293 47.6373C159.293 48.5274 158.903 49.3186 157.928 49.9121C156.791 50.5714 154.874 50.967 151.852 50.967ZM149.869 20.1099C150.324 20.1099 150.747 20.3406 151.137 20.7362C152.144 22.0219 152.891 24.956 152.891 28.2527C152.891 30.5934 152.339 32.4395 151.787 33.5274C151.364 34.0549 150.909 34.3186 150.357 34.3186C149.772 34.3186 149.187 33.956 148.667 33.3296C147.822 31.978 147.01 29.6044 147.01 26.7362C147.01 24.0659 147.92 21.6923 148.829 20.6373C149.154 20.2747 149.512 20.1099 149.869 20.1099Z" fill="white"/>
</svg>
