<svg width="48" height="48" viewBox="0 0 48 48" fill="none" xmlns="http://www.w3.org/2000/svg">
<path d="M23.9918 4C12.9346 4 4 12.951 4 23.9918C4 32.4656 9.26532 39.7055 16.7026 42.6178C16.5216 41.0382 16.3735 38.603 16.7684 36.8754C17.1304 35.3122 19.1049 26.9371 19.1049 26.9371C19.1049 26.9371 18.5126 25.7359 18.5126 23.9753C18.5126 21.1946 20.125 19.1214 22.1324 19.1214C23.8437 19.1214 24.6664 20.4048 24.6664 21.935C24.6664 23.6462 23.5804 26.2131 23.0045 28.5989C22.5274 30.5899 24.0082 32.2188 25.9663 32.2188C29.5204 32.2188 32.2518 28.4673 32.2518 23.0704C32.2518 18.2822 28.8128 14.942 23.893 14.942C18.1999 14.942 14.8597 19.2036 14.8597 23.6133C14.8597 25.3246 15.5179 27.1674 16.3406 28.1711C16.5052 28.3686 16.5216 28.5496 16.4722 28.747C16.3242 29.3723 15.9786 30.738 15.9128 31.0177C15.8305 31.3797 15.6166 31.462 15.2382 31.281C12.77 30.0962 11.2234 26.4434 11.2234 23.5146C11.2234 17.2127 15.7976 11.4208 24.436 11.4208C31.3632 11.4208 36.7602 16.357 36.7602 22.9716C36.7602 29.8659 32.4163 35.411 26.3941 35.411C24.3702 35.411 22.4615 34.3579 21.8198 33.1074C21.8198 33.1074 20.8161 36.9247 20.5693 37.8626C20.125 39.6068 18.9074 41.7787 18.0847 43.1115C19.9605 43.6874 21.935 44 24.0082 44C35.049 44 44 35.049 44 24.0082C43.9836 12.951 35.0325 4 23.9918 4Z" fill="black"/>
</svg>
